<svg width="89" height="25" viewBox="0 0 89 25" fill="none" xmlns="http://www.w3.org/2000/svg">
  <path d="M22.4585 12.235C22.4585 6.03132 19.0718 1.25195 10.4626 1.25195H1.25208V23.218H10.4626C19.0718 23.218 22.4585 18.4387 22.4585 12.235ZM16.1915 12.235C16.1915 16.5712 13.7544 18.1855 10.3677 18.1855H7.23419V6.28453H10.3677C13.7544 6.28453 16.1915 7.89875 16.1915 12.235Z" fill="white"/>
  <path d="M23.8911 23.218H41.2994V18.2171H29.8732V14.4506H39.9067V9.70286H29.8732V6.25287H41.0145V1.25195H23.8911V23.218Z" fill="white"/>
  <path d="M61.564 8.87996C61.564 3.34095 58.0191 1.25195 52.5117 1.25195H42.9846V23.218H48.9667V16.508H52.5117C58.0191 16.508 61.564 14.4189 61.564 8.87996ZM55.3604 8.87996C55.3604 11.0323 54.3476 11.9185 51.9103 11.9185H48.9667V5.84141H51.9103C54.3476 5.84141 55.3604 6.72764 55.3604 8.87996Z" fill="white"/>
  <path d="M62.2169 6.37948H69.1485V23.218H75.1306V6.37948H82.0623V1.25195H62.2169V6.37948Z" fill="white"/>
  <path d="M79.5767 20.1428C79.5767 22.1306 81.1858 23.7397 83.1739 23.7397C85.1615 23.7397 86.7867 22.1306 86.7867 20.1428C86.7867 18.155 85.1615 16.53 83.1739 16.53C81.1858 16.53 79.5767 18.155 79.5767 20.1428ZM80.2708 20.1428C80.2708 18.5021 81.5644 17.1611 83.1739 17.1611C84.7826 17.1611 86.0923 18.5021 86.0923 20.1428C86.0923 21.7835 84.7826 23.1087 83.1739 23.1087C81.5644 23.1087 80.2708 21.7835 80.2708 20.1428ZM81.4856 21.9255H82.6211V20.6949H83.2686L83.9465 21.9255H85.1772L84.3567 20.4741C84.7356 20.3164 85.019 19.8904 85.019 19.4171C85.019 18.5809 84.4828 18.1865 83.5676 18.1865H81.4856V21.9255ZM83.8674 19.4328C83.8674 19.7326 83.6788 19.8589 83.3155 19.8589H82.6211V19.07H83.3155C83.6788 19.07 83.8674 19.1647 83.8674 19.4328Z" fill="white"/>
</svg>

