<svg width="9" height="12" viewBox="0 0 9 12" fill="none" xmlns="http://www.w3.org/2000/svg">
  <path fill-rule="evenodd" clip-rule="evenodd" d="M7.3125 4H7.875C8.49375 4 9 4.51429 9 5.14286V10.8571C9 11.4857 8.49375 12 7.875 12H1.125C0.50625 12 0 11.4857 0 10.8571V5.14286C0 4.51429 0.50625 4 1.125 4H1.6875V2.85714C1.6875 1.28 2.9475 0 4.5 0C6.0525 0 7.3125 1.28 7.3125 2.85714V4ZM2.75625 2.85714V4H6.24375V2.85714C6.24375 1.88 5.46187 1.08572 4.5 1.08572C3.53812 1.08572 2.75625 1.88 2.75625 2.85714Z" fill="#131313"/>
</svg>
