<svg
        width="31"
        height="9"
        viewBox="0 0 31 9"
        fill="none"
        xmlns="http://www.w3.org/2000/svg"
>
    <path
            d="M8.31982 4.5C8.31982 6.70914 6.52896 8.5 4.31982 8.5C2.11069 8.5 0.319824 6.70914 0.319824 4.5C0.319824 2.29086 2.11069 0.5 4.31982 0.5C6.52896 0.5 8.31982 2.29086 8.31982 4.5Z"
            fill="white"
    />
    <path
            d="M19.5198 4.5C19.5198 6.70914 17.729 8.5 15.5198 8.5C13.3107 8.5 11.5198 6.70914 11.5198 4.5C11.5198 2.29086 13.3107 0.5 15.5198 0.5C17.729 0.5 19.5198 2.29086 19.5198 4.5Z"
            fill="white"
    />
    <path
            d="M30.7198 4.5C30.7198 6.70914 28.929 8.5 26.7198 8.5C24.5107 8.5 22.7198 6.70914 22.7198 4.5C22.7198 2.29086 24.5107 0.5 26.7198 0.5C28.929 0.5 30.7198 2.29086 30.7198 4.5Z"
            fill="white"
    />
</svg>
